<?xml version="1.0" standalone="no"?>
<!DOCTYPE svg PUBLIC "-//W3C//DTD SVG 20010904//EN"
 "http://www.w3.org/TR/2001/REC-SVG-20010904/DTD/svg10.dtd">
<svg version="1.0" xmlns="http://www.w3.org/2000/svg"
 width="700.000000pt" height="700.000000pt" viewBox="0 0 700.000000 700.000000"
 preserveAspectRatio="xMidYMid meet">
<metadata>
Created by potrace 1.11, written by Peter Selinger 2001-2013
</metadata>
<g transform="translate(0.000000,700.000000) scale(0.100000,-0.100000)"
fill="#000000" stroke="none">
<path d="M1335 6085 l-246 -240 4 -1390 c4 -1348 5 -1451 27 -1600 6 -38 12
-86 14 -105 7 -68 46 -236 77 -330 47 -147 167 -383 239 -474 5 -6 36 -45 69
-87 285 -362 718 -604 1454 -813 171 -49 774 -216 852 -236 17 -5 118 -33 225
-63 107 -30 197 -52 199 -51 3 3 5 3486 2 3572 l-1 22 -463 0 -463 0 -361
-360 -361 -360 389 0 c214 0 390 -3 390 -7 6 -33 2 -1776 -3 -1779 -4 -3 -40
4 -80 15 -40 11 -127 34 -193 51 -562 149 -813 314 -1007 665 -57 103 -91 217
-104 345 -3 30 -8 73 -11 95 -3 22 -7 613 -9 1313 l-4 1272 22 1 c28 1 1137 1
1158 0 13 -1 15 -31 13 -221 -1 -121 -1 -220 0 -220 6 0 1221 1203 1230 1217
3 5 -567 9 -1403 9 l-1410 0 -245 -241z"/>
<path d="M4725 5714 c-337 -338 -610 -615 -606 -615 3 -1 206 -2 451 -4 245
-1 450 -3 455 -4 7 -1 10 -742 10 -2206 0 -1213 1 -2205 3 -2205 2 0 199 197
438 437 l434 437 0 2386 0 2386 -286 1 -286 0 -613 -613z"/>
</g>
</svg>
