<svg id="Layer_1" data-name="Layer 1" xmlns="http://www.w3.org/2000/svg" viewBox="0 0 591.23 591.23"><defs><style>.cls-1{fill:#fbb03b;}</style></defs><title>gwent.one icon - change</title><path class="cls-1" d="M295.62,0V50A96.07,96.07,0,0,1,364,78.32L512.91,227.23a96.82,96.82,0,0,1,0,136.76L364,512.91a96.71,96.71,0,0,1-136.76,0L78.32,364a96.82,96.82,0,0,1,0-136.76L227.23,78.32A96.1,96.1,0,0,1,295.61,50V0m0,0A146.21,146.21,0,0,0,191.88,43L43,191.88a146.71,146.71,0,0,0,0,207.47L191.88,548.26a146.7,146.7,0,0,0,207.47,0L548.26,399.35a146.71,146.71,0,0,0,0-207.47L399.35,43A146.24,146.24,0,0,0,295.61,0Z"/></svg>